<svg width="1200" height="400" xmlns="http://www.w3.org/2000/svg">
  <rect width="100%" height="100%" fill="#FAFAFA"/>
  
  <!-- Building shapes -->
  <rect x="100" y="80" width="200" height="280" fill="#EEEEEE" stroke="#CCCCCC"/>
  <rect x="350" y="120" width="180" height="240" fill="#F5F5F5" stroke="#CCCCCC"/>
  <rect x="580" y="100" width="220" height="260" fill="#EEEEEE" stroke="#CCCCCC"/>
  <rect x="850" y="150" width="190" height="210" fill="#F5F5F5" stroke="#CCCCCC"/>
  
  <!-- Windows -->
  <pattern id="windows1" patternUnits="userSpaceOnUse" width="40" height="40" patternTransform="scale(0.5)">
    <rect width="20" height="20" fill="#FFFFFF" stroke="#DDDDDD"/>
  </pattern>
  
  <rect x="120" y="100" width="160" height="240" fill="url(#windows1)"/>
  <rect x="370" y="140" width="140" height="200" fill="url(#windows1)"/>
  <rect x="600" y="120" width="180" height="220" fill="url(#windows1)"/>
  <rect x="870" y="170" width="150" height="170" fill="url(#windows1)"/>
  
  <!-- Token overlay -->
  <circle cx="250" cy="200" r="60" fill="#007BFF" opacity="0.2"/>
  <circle cx="450" cy="180" r="40" fill="#007BFF" opacity="0.2"/>
  <circle cx="700" cy="220" r="50" fill="#007BFF" opacity="0.2"/>
  <circle cx="900" cy="250" r="45" fill="#007BFF" opacity="0.2"/>
  
  <!-- Connection lines -->
  <line x1="250" y1="200" x2="450" y2="180" stroke="#007BFF" stroke-width="2" opacity="0.3"/>
  <line x1="450" y1="180" x2="700" y2="220" stroke="#007BFF" stroke-width="2" opacity="0.3"/>
  <line x1="700" y1="220" x2="900" y2="250" stroke="#007BFF" stroke-width="2" opacity="0.3"/>
</svg> 